<mxfile host="app.diagrams.net" modified="2022-06-04T23:33:46.799Z" agent="5.0 (Windows NT 6.1; Win64; x64) AppleWebKit/537.36 (KHTML, like Gecko) Chrome/100.0.4896.127 Safari/537.36" etag="gUMo9sh7enMbZmRIsNvJ" version="19.0.0" type="github">
  <diagram id="ldY1qM2QLt-F-Y-WQ3xt" name="Page-1">
    <mxGraphModel dx="1422" dy="800" grid="1" gridSize="10" guides="1" tooltips="1" connect="1" arrows="1" fold="1" page="1" pageScale="1" pageWidth="827" pageHeight="1169" math="0" shadow="0">
      <root>
        <mxCell id="0" />
        <mxCell id="1" parent="0" />
        <mxCell id="4uQCtZzEzjz5VoVeqCpC-3" value="" style="edgeStyle=orthogonalEdgeStyle;rounded=0;orthogonalLoop=1;jettySize=auto;html=1;" edge="1" parent="1" source="4uQCtZzEzjz5VoVeqCpC-1" target="4uQCtZzEzjz5VoVeqCpC-2">
          <mxGeometry relative="1" as="geometry" />
        </mxCell>
        <mxCell id="4uQCtZzEzjz5VoVeqCpC-1" value="原谅朋友" style="ellipse;whiteSpace=wrap;html=1;" vertex="1" parent="1">
          <mxGeometry x="60" y="120" width="120" height="80" as="geometry" />
        </mxCell>
        <mxCell id="4uQCtZzEzjz5VoVeqCpC-5" value="" style="edgeStyle=orthogonalEdgeStyle;rounded=0;orthogonalLoop=1;jettySize=auto;html=1;" edge="1" parent="1" source="4uQCtZzEzjz5VoVeqCpC-2" target="4uQCtZzEzjz5VoVeqCpC-4">
          <mxGeometry relative="1" as="geometry" />
        </mxCell>
        <mxCell id="4uQCtZzEzjz5VoVeqCpC-2" value="原谅父母" style="ellipse;whiteSpace=wrap;html=1;" vertex="1" parent="1">
          <mxGeometry x="260" y="120" width="120" height="80" as="geometry" />
        </mxCell>
        <mxCell id="4uQCtZzEzjz5VoVeqCpC-7" value="" style="edgeStyle=orthogonalEdgeStyle;rounded=0;orthogonalLoop=1;jettySize=auto;html=1;" edge="1" parent="1" source="4uQCtZzEzjz5VoVeqCpC-4" target="4uQCtZzEzjz5VoVeqCpC-6">
          <mxGeometry relative="1" as="geometry" />
        </mxCell>
        <mxCell id="4uQCtZzEzjz5VoVeqCpC-4" value="原谅哥哥" style="ellipse;whiteSpace=wrap;html=1;" vertex="1" parent="1">
          <mxGeometry x="460" y="120" width="120" height="80" as="geometry" />
        </mxCell>
        <mxCell id="4uQCtZzEzjz5VoVeqCpC-9" value="" style="edgeStyle=orthogonalEdgeStyle;rounded=0;orthogonalLoop=1;jettySize=auto;html=1;" edge="1" parent="1" source="4uQCtZzEzjz5VoVeqCpC-6" target="4uQCtZzEzjz5VoVeqCpC-8">
          <mxGeometry relative="1" as="geometry" />
        </mxCell>
        <mxCell id="4uQCtZzEzjz5VoVeqCpC-6" value="原谅自己" style="ellipse;whiteSpace=wrap;html=1;" vertex="1" parent="1">
          <mxGeometry x="660" y="120" width="120" height="80" as="geometry" />
        </mxCell>
        <mxCell id="4uQCtZzEzjz5VoVeqCpC-8" value="控制自己" style="ellipse;whiteSpace=wrap;html=1;" vertex="1" parent="1">
          <mxGeometry x="870" y="120" width="120" height="80" as="geometry" />
        </mxCell>
      </root>
    </mxGraphModel>
  </diagram>
</mxfile>
